<svg id="svg" version="1.1" width="400" height="400" xmlns="http://www.w3.org/2000/svg" xmlns:xlink="http://www.w3.org/1999/xlink" style="display: block;"><g id="svgg"><path id="path0" d="M0.000 200.000 L 0.000 400.000 200.000 400.000 L 400.000 400.000 400.000 200.000 L 400.000 0.000 200.000 0.000 L 0.000 0.000 0.000 200.000 M145.202 137.570 C 156.928 139.871,164.608 142.548,166.013 144.821 C 166.598 145.768,159.248 163.200,158.265 163.200 C 157.912 163.200,154.571 162.315,150.839 161.234 C 116.748 151.355,93.262 166.699,91.448 200.037 C 89.665 232.805,109.067 252.115,138.566 246.931 C 145.948 245.633,145.673 246.283,145.420 230.740 L 145.200 217.200 132.400 216.800 L 119.600 216.400 119.785 207.300 C 120.037 194.876,117.617 195.938,145.108 196.188 L 168.400 196.400 168.609 228.179 L 168.818 259.958 165.752 261.522 C 128.391 280.583,82.980 266.445,69.323 231.501 C 48.455 178.106,89.959 126.727,145.202 137.570 M207.006 192.600 L 207.211 246.400 234.708 246.400 C 255.755 246.400,262.387 246.635,262.986 247.400 C 264.268 249.042,267.449 265.671,266.636 266.484 C 266.209 266.911,248.497 267.128,223.953 267.007 L 182.000 266.800 181.793 203.600 C 181.680 168.840,181.762 139.941,181.976 139.379 C 182.274 138.599,185.249 138.410,194.583 138.579 L 206.800 138.800 207.006 192.600 M347.094 139.472 C 348.223 140.832,351.427 156.654,350.868 158.110 C 350.530 158.992,346.398 159.200,329.225 159.200 L 308.000 159.200 308.000 212.785 L 308.000 266.370 306.200 266.815 C 305.210 267.060,299.540 267.157,293.600 267.030 L 282.800 266.800 282.594 213.014 L 282.389 159.228 262.994 159.014 L 243.600 158.800 243.373 149.715 C 243.223 143.701,243.459 140.252,244.071 139.515 C 245.421 137.888,345.745 137.847,347.094 139.472 " stroke="none" fill="#111111" fill-rule="evenodd"></path><path id="path1" d="M116.060 137.670 C 45.118 151.588,48.006 261.517,119.505 268.790 C 134.948 270.361,153.955 267.222,165.665 261.166 L 168.000 259.959 168.000 228.379 L 168.000 196.800 144.447 196.800 C 131.493 196.800,120.703 197.110,120.468 197.490 C 120.234 197.869,119.799 202.180,119.502 207.069 L 118.962 215.959 132.081 216.180 L 145.200 216.400 145.418 231.013 L 145.636 245.626 143.418 246.535 C 137.970 248.770,118.487 247.830,112.596 245.049 C 95.255 236.860,86.415 213.071,92.022 189.682 C 98.239 163.745,119.633 152.657,148.712 160.300 C 158.989 163.001,158.164 163.405,162.403 153.594 L 165.939 145.409 164.156 143.965 C 157.546 138.613,129.778 134.978,116.060 137.670 M183.000 138.951 C 181.681 139.296,181.600 143.016,181.600 202.859 L 181.600 266.400 224.049 266.400 L 266.498 266.400 265.985 263.000 C 265.703 261.130,264.858 256.900,264.107 253.600 L 262.742 247.600 234.771 247.200 L 206.800 246.800 206.594 193.244 C 206.434 151.618,206.167 139.547,205.394 139.056 C 204.360 138.399,185.452 138.311,183.000 138.951 " stroke="none" fill="#ffffff" fill-rule="evenodd"></path><path id="path2" d="M125.431 136.593 C 128.199 136.750,132.519 136.749,135.031 136.590 C 137.544 136.432,135.280 136.304,130.000 136.305 C 124.720 136.307,122.664 136.436,125.431 136.593 M205.394 138.983 C 206.166 139.530,206.435 151.666,206.594 193.244 L 206.800 246.800 234.764 247.200 L 262.729 247.600 263.285 249.600 C 263.750 251.275,263.853 251.334,263.920 249.960 C 264.090 246.478,263.449 246.400,234.646 246.400 L 207.211 246.400 207.006 192.667 C 206.826 145.700,206.649 138.892,205.600 138.606 C 204.717 138.365,204.663 138.465,205.394 138.983 M244.071 139.515 C 243.459 140.252,243.223 143.701,243.373 149.715 L 243.600 158.800 262.994 159.014 L 282.389 159.228 282.594 213.014 L 282.800 266.800 293.600 267.030 C 299.540 267.157,305.210 267.060,306.200 266.815 L 308.000 266.370 308.000 212.785 L 308.000 159.200 329.225 159.200 C 346.398 159.200,350.530 158.992,350.868 158.110 C 351.427 156.654,348.223 140.832,347.094 139.472 C 345.745 137.847,245.421 137.888,244.071 139.515 M164.761 144.224 C 165.613 145.353,165.639 146.078,164.888 147.727 C 164.367 148.871,164.085 149.952,164.262 150.129 C 164.440 150.306,165.047 149.336,165.611 147.973 C 166.515 145.790,166.462 145.334,165.163 144.147 C 163.771 142.876,163.748 142.881,164.761 144.224 M161.730 154.834 C 160.390 157.776,160.645 158.404,162.095 155.729 C 162.771 154.480,163.176 153.309,162.993 153.126 C 162.810 152.943,162.241 153.712,161.730 154.834 M159.603 159.992 C 159.304 160.933,158.281 162.017,157.330 162.401 C 155.617 163.092,155.616 163.099,157.272 163.149 C 158.817 163.196,161.423 159.556,160.503 158.636 C 160.307 158.440,159.902 159.050,159.603 159.992 M103.276 168.600 C 98.466 173.414,93.305 182.658,92.445 188.000 C 92.182 189.633,92.747 188.617,93.800 185.563 C 96.321 178.257,100.500 171.630,105.186 167.507 C 107.379 165.578,108.880 164.000,108.522 164.000 C 108.165 164.000,105.804 166.070,103.276 168.600 M90.913 194.200 C 89.562 202.375,91.212 219.227,93.753 223.200 C 94.381 224.182,94.441 224.144,94.084 222.996 C 92.032 216.400,91.025 207.717,91.398 199.837 C 91.833 190.675,91.717 189.336,90.913 194.200 M144.818 196.594 L 168.036 196.824 167.818 228.773 C 167.698 246.344,167.874 260.447,168.209 260.111 C 168.545 259.776,168.725 245.303,168.609 227.951 L 168.400 196.400 145.000 196.382 L 121.599 196.363 144.818 196.594 M124.000 216.541 C 134.714 217.120,145.421 217.150,145.079 216.600 C 144.874 216.270,139.057 216.068,132.153 216.151 C 125.249 216.234,121.580 216.410,124.000 216.541 M94.776 226.000 C 95.728 229.037,100.367 236.041,103.131 238.617 C 105.706 241.016,105.675 240.933,102.697 237.452 C 100.933 235.391,98.317 231.611,96.882 229.052 C 95.448 226.493,94.500 225.120,94.776 226.000 M106.864 241.703 C 107.395 242.562,113.639 245.827,114.021 245.446 C 114.167 245.299,112.517 244.235,110.353 243.082 C 108.190 241.928,106.619 241.308,106.864 241.703 M264.159 253.200 C 264.159 254.080,264.448 255.700,264.800 256.800 C 265.307 258.384,265.441 258.467,265.441 257.200 C 265.441 256.320,265.152 254.700,264.800 253.600 C 264.293 252.016,264.159 251.933,264.159 253.200 M266.068 262.593 L 266.496 266.386 224.248 266.600 L 182.000 266.814 224.225 267.007 C 270.777 267.220,267.861 267.568,266.442 261.966 L 265.641 258.800 266.068 262.593 M118.611 269.374 C 119.827 269.558,121.627 269.553,122.611 269.363 C 123.595 269.173,122.600 269.023,120.400 269.029 C 118.200 269.035,117.395 269.190,118.611 269.374 M134.214 269.380 C 135.652 269.558,137.812 269.554,139.014 269.372 C 140.216 269.189,139.040 269.043,136.400 269.048 C 133.760 269.052,132.776 269.202,134.214 269.380 " stroke="none" fill="#ffcd5d" fill-rule="evenodd"></path></g></svg>
